<?xml version="1.0" standalone="no"?>
<!DOCTYPE svg PUBLIC "-//W3C//DTD SVG 20010904//EN"
 "http://www.w3.org/TR/2001/REC-SVG-20010904/DTD/svg10.dtd">
<svg version="1.0" xmlns="http://www.w3.org/2000/svg"
 width="320.000000pt" height="320.000000pt" viewBox="0 0 320.000000 320.000000"
 preserveAspectRatio="xMidYMid meet">
<metadata>
Created by potrace 1.14, written by Peter Selinger 2001-2017
</metadata>
<g transform="translate(0.000000,320.000000) scale(0.100000,-0.100000)"
fill="#000000" stroke="none">
<path d="M293 3172 c-46 -62 -107 -171 -140 -247 -31 -72 -106 -318 -118 -387
-3 -15 -12 -58 -20 -95 -10 -52 -14 -159 -15 -450 0 -211 3 -383 8 -383 4 0
25 18 47 40 21 21 41 37 45 35 13 -8 4 -646 -9 -707 -7 -32 -9 -63 -5 -69 4
-8 3 -9 -5 -5 -8 6 -10 1 -6 -16 5 -21 -4 -87 -30 -223 -3 -16 -15 -60 -25
-96 -18 -58 -20 -98 -20 -318 l0 -251 1600 0 1600 0 0 361 0 361 -25 20 c-14
11 -53 39 -86 62 -57 39 -63 46 -100 135 -21 52 -39 99 -39 105 0 6 -7 23 -14
39 -22 41 -4 33 61 -29 32 -31 80 -75 107 -98 27 -22 56 -49 65 -59 8 -9 19
-17 23 -17 5 0 8 70 8 155 l0 156 -50 106 c-54 112 -53 102 -24 191 3 9 14 6
39 -14 l35 -26 0 179 c0 179 0 180 -25 203 -18 17 -25 34 -25 62 0 21 -5 38
-10 38 -6 0 -8 -11 -4 -26 10 -39 -6 -24 -58 53 -85 127 -101 168 -113 288 -2
22 -6 56 -9 75 -4 19 -8 49 -10 65 -9 60 -17 100 -23 115 -3 8 -7 26 -9 40 -5
37 -59 198 -100 296 -19 47 -32 89 -29 94 3 5 0 12 -6 16 -8 5 -10 2 -5 -7 4
-8 0 -5 -8 5 -19 23 -21 40 -4 30 7 -4 8 -3 4 5 -4 6 -11 9 -16 6 -7 -4 -18
21 -16 35 1 3 -5 12 -12 20 -7 8 -36 48 -64 88 l-51 72 -1147 0 -1146 0 -21
-28z m2819 -1654 c6 -12 -15 -89 -21 -82 -8 7 -71 180 -71 192 0 3 88 -102 92
-110z m-2843 -892 c-15 -14 -20 -16 -17 -6 3 9 12 42 19 75 l14 60 3 -54 c3
-45 0 -58 -19 -75z"/>
<path d="M2831 2855 c0 -5 6 -19 14 -29 8 -11 15 -15 15 -10 0 6 -7 19 -15 30
-8 10 -14 15 -14 9z"/>
<path d="M2870 2780 c6 -11 13 -20 16 -20 2 0 0 9 -6 20 -6 11 -13 20 -16 20
-2 0 0 -9 6 -20z"/>
<path d="M2891 2748 c-1 -11 51 -119 55 -115 2 2 -9 30 -25 63 -17 32 -30 56
-30 52z"/>
<path d="M2950 2618 c0 -10 41 -98 45 -98 6 0 -26 83 -37 95 -4 5 -8 6 -8 3z"/>
<path d="M3001 2488 c12 -22 59 -165 59 -179 0 -16 21 -62 26 -57 2 3 0 16 -5
29 -5 13 -24 70 -41 127 -18 56 -37 102 -42 102 -5 0 -3 -10 3 -22z"/>
<path d="M3090 2202 c11 -48 19 -90 25 -127 3 -16 7 -39 9 -50 3 -11 5 -35 5
-52 1 -18 5 -33 10 -33 9 0 6 37 -10 120 -6 30 -12 64 -13 75 -9 57 -19 96
-26 100 -4 3 -4 -12 0 -33z"/>
<path d="M32 794 c-19 -47 -32 -88 -29 -90 6 -7 70 153 65 165 -1 6 -18 -28
-36 -75z"/>
</g>
</svg>
